<svg>
  <path d="M1.08-7.87L1.08 0L2.08 0L2.08-3.53L5.08-3.53L5.08-4.37L2.08-4.37L2.08-7.03L5.62-7.03L5.62-7.87ZM8.00-4.14L8.00-7.07L9.32-7.07C9.94-7.07 10.41-6.96 10.74-6.76C11.07-6.55 11.23-6.18 11.23-5.66C11.23-5.15 11.07-4.77 10.74-4.52C10.41-4.27 9.94-4.14 9.32-4.14ZM11.33 0L12.46 0L10.46-3.43C11.00-3.57 11.43-3.82 11.75-4.19C12.07-4.56 12.23-5.05 12.23-5.66C12.23-6.07 12.16-6.42 12.02-6.70C11.89-6.98 11.70-7.20 11.45-7.38C11.21-7.56 10.92-7.68 10.58-7.76C10.24-7.83 9.87-7.87 9.47-7.87L7.01-7.87L7.01 0L8.00 0L8.00-3.32L9.43-3.32ZM16.88 0.14C17.38 0.14 17.83 0.05 18.25-0.14C18.66-0.34 19.01-0.61 19.31-0.97C19.61-1.32 19.85-1.75 20.01-2.26C20.17-2.77 20.26-3.34 20.26-3.97C20.26-4.60 20.17-5.16 20.01-5.66C19.85-6.16 19.61-6.58 19.31-6.93C19.01-7.28 18.66-7.55 18.25-7.73C17.83-7.92 17.38-8.02 16.88-8.02C16.39-8.02 15.93-7.92 15.52-7.74C15.11-7.56 14.76-7.29 14.46-6.94C14.16-6.59 13.93-6.17 13.77-5.67C13.61-5.17 13.52-4.60 13.52-3.97C13.52-3.34 13.61-2.77 13.77-2.26C13.93-1.75 14.16-1.32 14.46-0.97C14.76-0.61 15.11-0.34 15.52-0.14C15.93 0.05 16.39 0.14 16.88 0.14ZM16.88-0.73C16.53-0.73 16.21-0.81 15.93-0.96C15.65-1.11 15.40-1.33 15.20-1.61C14.99-1.90 14.84-2.24 14.72-2.63C14.61-3.03 14.56-3.48 14.56-3.97C14.56-4.46 14.61-4.90 14.72-5.29C14.84-5.68 14.99-6.02 15.20-6.29C15.40-6.56 15.65-6.77 15.93-6.92C16.21-7.07 16.53-7.14 16.88-7.14C17.24-7.14 17.55-7.07 17.84-6.92C18.12-6.77 18.37-6.56 18.57-6.29C18.77-6.02 18.93-5.68 19.04-5.29C19.16-4.90 19.21-4.46 19.21-3.97C19.21-3.48 19.16-3.03 19.04-2.63C18.93-2.24 18.77-1.90 18.57-1.61C18.37-1.33 18.12-1.11 17.84-0.96C17.55-0.81 17.24-0.73 16.88-0.73ZM21.95-7.87L21.95 0L22.87 0L22.87-4.33C22.87-4.68 22.86-5.07 22.82-5.50C22.79-5.92 22.76-6.31 22.74-6.66L22.79-6.66L23.41-4.91L24.94-0.79L25.50-0.79L27.01-4.91L27.65-6.66L27.70-6.66C27.66-6.31 27.63-5.92 27.61-5.50C27.58-5.07 27.56-4.68 27.56-4.33L27.56 0L28.51 0L28.51-7.87L27.34-7.87L25.82-3.65L25.27-2.04L25.22-2.04L24.65-3.65L23.12-7.87ZM33.10-7.87L33.10 0L37.75 0L37.75-0.85L34.09-0.85L34.09-3.71L37.08-3.71L37.08-4.56L34.09-4.56L34.09-7.03L37.63-7.03L37.63-7.87ZM39.42-7.87L39.42 0L40.37 0L40.37-4.12C40.37-4.53 40.35-4.95 40.33-5.36C40.30-5.77 40.27-6.18 40.24-6.58L40.28-6.58L41.14-4.96L43.99 0L45.02 0L45.02-7.87L44.08-7.87L44.08-3.80C44.08-3.39 44.09-2.97 44.12-2.54C44.15-2.11 44.17-1.70 44.20-1.30L44.15-1.30L43.30-2.93L40.45-7.87ZM46.73-3.94C46.73-3.30 46.82-2.72 46.99-2.21C47.17-1.71 47.41-1.28 47.72-0.93C48.04-0.58 48.41-0.32 48.84-0.13C49.27 0.05 49.75 0.14 50.27 0.14C50.80 0.14 51.27 0.06 51.69-0.11C52.11-0.29 52.45-0.50 52.70-0.77L52.70-4.08L50.12-4.08L50.12-3.25L51.79-3.25L51.79-1.20C51.63-1.06 51.43-0.94 51.17-0.86C50.92-0.77 50.66-0.73 50.38-0.73C49.95-0.73 49.58-0.81 49.25-0.96C48.93-1.11 48.66-1.33 48.44-1.61C48.22-1.89 48.05-2.23 47.93-2.62C47.82-3.02 47.76-3.46 47.76-3.96C47.76-4.45 47.82-4.89 47.95-5.28C48.07-5.67 48.24-6.01 48.47-6.28C48.69-6.56 48.96-6.77 49.28-6.92C49.60-7.07 49.96-7.14 50.36-7.14C50.76-7.14 51.09-7.07 51.35-6.93C51.61-6.79 51.84-6.62 52.04-6.41L52.61-7.04C52.38-7.28 52.08-7.51 51.71-7.71C51.35-7.91 50.90-8.02 50.35-8.02C49.82-8.02 49.34-7.92 48.90-7.73C48.46-7.55 48.08-7.28 47.75-6.92C47.43-6.57 47.18-6.14 47.00-5.64C46.82-5.14 46.73-4.57 46.73-3.94ZM54.59-7.87L54.59 0L59.03 0L59.03-0.85L55.58-0.85L55.58-7.87ZM60.42-7.87L60.42 0L61.42 0L61.42-7.87ZM63.60-1.72L63.00-1.02C63.34-0.66 63.75-0.38 64.22-0.17C64.70 0.04 65.21 0.14 65.76 0.14C66.18 0.14 66.55 0.09 66.88-0.03C67.20-0.15 67.48-0.31 67.72-0.51C67.95-0.71 68.13-0.95 68.25-1.22C68.37-1.50 68.44-1.79 68.44-2.10C68.44-2.39 68.39-2.64 68.31-2.86C68.23-3.08 68.11-3.27 67.97-3.44C67.82-3.60 67.65-3.75 67.45-3.87C67.25-3.99 67.04-4.10 66.82-4.20L65.70-4.68C65.54-4.74 65.38-4.81 65.23-4.89C65.08-4.97 64.94-5.05 64.81-5.15C64.68-5.25 64.58-5.37 64.51-5.50C64.43-5.63 64.39-5.80 64.39-5.99C64.39-6.35 64.53-6.63 64.79-6.83C65.06-7.04 65.42-7.14 65.86-7.14C66.22-7.14 66.55-7.07 66.85-6.94C67.14-6.81 67.40-6.63 67.64-6.40L68.18-7.04C67.90-7.33 67.56-7.57 67.16-7.75C66.76-7.93 66.33-8.02 65.86-8.02C65.50-8.02 65.17-7.96 64.87-7.86C64.57-7.76 64.31-7.61 64.09-7.42C63.87-7.23 63.69-7.01 63.57-6.76C63.45-6.50 63.38-6.22 63.38-5.93C63.38-5.64 63.43-5.39 63.53-5.17C63.62-4.95 63.75-4.76 63.90-4.60C64.05-4.44 64.22-4.30 64.42-4.19C64.61-4.08 64.80-3.98 64.98-3.90L66.11-3.41C66.29-3.32 66.46-3.24 66.62-3.16C66.78-3.08 66.92-2.99 67.04-2.89C67.15-2.79 67.25-2.67 67.31-2.53C67.38-2.39 67.42-2.22 67.42-2.02C67.42-1.63 67.27-1.32 66.98-1.09C66.70-0.85 66.29-0.73 65.77-0.73C65.36-0.73 64.97-0.82 64.59-1.00C64.21-1.18 63.88-1.42 63.60-1.72ZM69.98-7.87L69.98 0L70.98 0L70.98-3.71L74.64-3.71L74.64 0L75.65 0L75.65-7.87L74.64-7.87L74.64-4.57L70.98-4.57L70.98-7.87ZM81.86-7.03L81.86 0L82.87 0L82.87-7.03L85.25-7.03L85.25-7.87L79.49-7.87L79.49-7.03ZM89.28 0.14C89.78 0.14 90.23 0.05 90.64-0.14C91.05-0.34 91.41-0.61 91.71-0.97C92.01-1.32 92.24-1.75 92.41-2.26C92.57-2.77 92.65-3.34 92.65-3.97C92.65-4.60 92.57-5.16 92.41-5.66C92.24-6.16 92.01-6.58 91.71-6.93C91.41-7.28 91.05-7.55 90.64-7.73C90.23-7.92 89.78-8.02 89.28-8.02C88.78-8.02 88.33-7.92 87.92-7.74C87.51-7.56 87.15-7.29 86.86-6.94C86.56-6.59 86.33-6.17 86.17-5.67C86.00-5.17 85.92-4.60 85.92-3.97C85.92-3.34 86.00-2.77 86.17-2.26C86.33-1.75 86.56-1.32 86.86-0.97C87.15-0.61 87.51-0.34 87.92-0.14C88.33 0.05 88.78 0.14 89.28 0.14ZM89.28-0.73C88.93-0.73 88.61-0.81 88.33-0.96C88.04-1.11 87.80-1.33 87.59-1.61C87.39-1.90 87.23-2.24 87.12-2.63C87.01-3.03 86.95-3.48 86.95-3.97C86.95-4.46 87.01-4.90 87.12-5.29C87.23-5.68 87.39-6.02 87.59-6.29C87.80-6.56 88.04-6.77 88.33-6.92C88.61-7.07 88.93-7.14 89.28-7.14C89.63-7.14 89.95-7.07 90.23-6.92C90.52-6.77 90.76-6.56 90.97-6.29C91.17-6.02 91.33-5.68 91.44-5.29C91.55-4.90 91.61-4.46 91.61-3.97C91.61-3.48 91.55-3.03 91.44-2.63C91.33-2.24 91.17-1.90 90.97-1.61C90.76-1.33 90.52-1.11 90.23-0.96C89.95-0.81 89.63-0.73 89.28-0.73ZM96.77-7.87L96.77 0L101.42 0L101.42-0.85L97.76-0.85L97.76-3.71L100.75-3.71L100.75-4.56L97.76-4.56L97.76-7.03L101.30-7.03L101.30-7.87ZM102.01-7.87L104.53 0L105.70 0L108.19-7.87L107.17-7.87L105.91-3.62C105.78-3.15 105.65-2.72 105.54-2.32C105.43-1.92 105.30-1.48 105.16-1.02L105.11-1.02C104.96-1.48 104.83-1.92 104.72-2.32C104.61-2.72 104.48-3.15 104.34-3.62L103.08-7.87ZM109.27-7.87L109.27 0L113.93 0L113.93-0.85L110.27-0.85L110.27-3.71L113.26-3.71L113.26-4.56L110.27-4.56L110.27-7.03L113.81-7.03L113.81-7.87ZM116.59-4.14L116.59-7.07L117.91-7.07C118.53-7.07 119.00-6.96 119.33-6.76C119.66-6.55 119.82-6.18 119.82-5.66C119.82-5.15 119.66-4.77 119.33-4.52C119.00-4.27 118.53-4.14 117.91-4.14ZM119.92 0L121.04 0L119.05-3.43C119.59-3.57 120.02-3.82 120.34-4.19C120.66-4.56 120.82-5.05 120.82-5.66C120.82-6.07 120.75-6.42 120.61-6.70C120.48-6.98 120.29-7.20 120.04-7.38C119.80-7.56 119.51-7.68 119.17-7.76C118.83-7.83 118.46-7.87 118.06-7.87L115.60-7.87L115.60 0L116.59 0L116.59-3.32L118.02-3.32ZM123.67-3.05L123.67 0L124.68 0L124.68-3.05L127.04-7.87L126.00-7.87L124.99-5.65C124.87-5.36 124.74-5.08 124.61-4.80C124.47-4.52 124.34-4.23 124.20-3.94L124.15-3.94C124.02-4.23 123.89-4.52 123.77-4.80C123.65-5.08 123.52-5.36 123.40-5.65L122.38-7.87L121.31-7.87ZM130.85 0.14C131.34 0.14 131.80 0.05 132.21-0.14C132.62-0.34 132.98-0.61 133.28-0.97C133.58-1.32 133.81-1.75 133.97-2.26C134.14-2.77 134.22-3.34 134.22-3.97C134.22-4.60 134.14-5.16 133.97-5.66C133.81-6.16 133.58-6.58 133.28-6.93C132.98-7.28 132.62-7.55 132.21-7.73C131.80-7.92 131.34-8.02 130.85-8.02C130.35-8.02 129.90-7.92 129.49-7.74C129.07-7.56 128.72-7.29 128.42-6.94C128.13-6.59 127.90-6.17 127.73-5.67C127.57-5.17 127.49-4.60 127.49-3.97C127.49-3.34 127.57-2.77 127.73-2.26C127.90-1.75 128.13-1.32 128.42-0.97C128.72-0.61 129.07-0.34 129.49-0.14C129.90 0.05 130.35 0.14 130.85 0.14ZM130.85-0.73C130.50-0.73 130.18-0.81 129.89-0.96C129.61-1.11 129.37-1.33 129.16-1.61C128.96-1.90 128.80-2.24 128.69-2.63C128.58-3.03 128.52-3.48 128.52-3.97C128.52-4.46 128.58-4.90 128.69-5.29C128.80-5.68 128.96-6.02 129.16-6.29C129.37-6.56 129.61-6.77 129.89-6.92C130.18-7.07 130.50-7.14 130.85-7.14C131.20-7.14 131.52-7.07 131.80-6.92C132.09-6.77 132.33-6.56 132.53-6.29C132.74-6.02 132.90-5.68 133.01-5.29C133.12-4.90 133.18-4.46 133.18-3.97C133.18-3.48 133.12-3.03 133.01-2.63C132.90-2.24 132.74-1.90 132.53-1.61C132.33-1.33 132.09-1.11 131.80-0.96C131.52-0.81 131.20-0.73 130.85-0.73ZM135.91-7.87L135.91 0L136.86 0L136.86-4.12C136.86-4.53 136.85-4.95 136.82-5.36C136.79-5.77 136.76-6.18 136.73-6.58L136.78-6.58L137.63-4.96L140.48 0L141.52 0L141.52-7.87L140.57-7.87L140.57-3.80C140.57-3.39 140.58-2.97 140.61-2.54C140.64-2.11 140.66-1.70 140.69-1.30L140.64-1.30L139.79-2.93L136.94-7.87ZM143.68-7.87L143.68 0L148.33 0L148.33-0.85L144.67-0.85L144.67-3.71L147.66-3.71L147.66-4.56L144.67-4.56L144.67-7.03L148.21-7.03L148.21-7.87Z" transform="translate(13, 8)"/>
  <rect height="1" width="6" transform="translate(0, 3.5)"/>
  <rect height="1" width="6" transform="translate(170, 3.5)"/>
</svg>
