<svg>
  <path d="M25.85-9.79L25.85-9.79Q25.85-7.39 25.06-5.46 24.28-3.52 22.84-2.18 21.39-0.83 19.34-0.1 17.28 0.64 14.73 0.64L14.73 0.64Q10.67 0.64 7.49-0.66 4.31-1.96 2.25-3.62L2.25-3.62 6.31-7.69Q7.93-6.22 9.94-5.43L9.94-5.43Q11.16-4.94 12.24-4.8 13.32-4.65 14-4.65L14-4.65Q15.27-4.65 16.33-4.97 17.38-5.29 18.16-5.83L18.16-5.83Q19.83-7.05 19.83-9.06L19.83-9.06Q19.83-10.28 18.94-11.26L18.94-11.26Q18.26-12.04 17.18-12.53L17.18-12.53Q16.3-13.02 15.32-13.32 14.34-13.61 13.56-13.85L13.56-13.85Q13.32-13.95 13.12-13.98 12.92-14 12.78-14.1L12.78-14.1Q12.68-14.1 12.48-14.2L12.48-14.2Q11.45-14.49 9.52-15.22 7.59-15.96 5.68-17.23L5.68-17.23Q1.22-20.22 1.22-24.57L1.22-24.57Q1.22-27.46 2.23-29.45 3.23-31.43 4.85-32.68 6.46-33.92 8.44-34.46 10.43-35 12.34-35L12.34-35Q15.86-35 18.26-34.17 20.66-33.34 22.08-32.5L22.08-32.5Q22.81-32.06 23.33-31.65 23.84-31.23 24.23-30.89L24.23-30.89 20.07-26.68Q18.75-28 17.38-28.69L17.38-28.69Q15.32-29.67 13.07-29.67L13.07-29.67Q12.09-29.67 11.11-29.42 10.13-29.18 9.4-28.78L9.4-28.78Q7.25-27.46 7.25-25.31L7.25-25.31Q7.25-23.99 8.13-23.06L8.13-23.06Q8.76-22.32 9.89-21.74L9.89-21.74Q10.82-21.25 11.85-20.95 12.87-20.66 13.76-20.41L13.76-20.41 14.34-20.27Q14.59-20.17 15.27-19.97 15.96-19.78 16.89-19.39 17.82-18.99 18.92-18.46 20.02-17.92 21.1-17.18L21.1-17.18Q25.85-14.05 25.85-9.79ZM56.25-24.48L56.25-24.48 62.42-24.48 54.14 0 47.92 0 42.74-15.76 37.55 0 31.38 0 23.11-24.48 29.27-24.48 34.46-8.66 39.65-24.48 45.87-24.48 51.06-8.66 56.25-24.48ZM81.6-24.53L87.48-24.53 87.48 0 81.6 0 81.6-12.24Q81.6-15.18 79.55-17.23L79.55-17.23Q77.49-19.29 74.56-19.29L74.56-19.29Q73.14-19.29 71.84-18.75 70.54-18.21 69.56-17.23L69.56-17.23Q67.51-15.18 67.51-12.24L67.51-12.24Q67.51-9.35 69.56-7.29L69.56-7.29Q70.54-6.27 71.84-5.75 73.14-5.24 74.56-5.24L74.56-5.24Q76.02-5.24 77.2-5.73L77.2-5.73 79.3-0.49Q77.05 0.64 74.07 0.64L74.07 0.64Q71.37 0.64 69.1-0.37 66.82-1.37 65.16-3.13 63.49-4.9 62.56-7.25 61.63-9.59 61.63-12.24L61.63-12.24Q61.63-14.93 62.56-17.28 63.49-19.63 65.16-21.39 66.82-23.15 69.1-24.16 71.37-25.16 74.07-25.16L74.07-25.16Q76.46-25.16 78.32-24.43 80.18-23.69 81.6-22.57L81.6-22.57 81.6-24.53ZM96.78-22.62L96.78-22.62Q98.15-23.74 99.89-24.48 101.63-25.21 103.83-25.21L103.83-25.21 103.83-19.34Q100.89-19.34 98.84-17.28L98.84-17.28Q96.78-15.13 96.78-12.29L96.78-12.29 96.78 0 90.91 0 90.91-12.29 90.91-24.53 96.78-24.53 96.78-22.62ZM124.24-24.53L130.12-24.53 130.12 0 124.24 0 124.24-12.24Q124.24-15.18 122.19-17.23L122.19-17.23Q120.13-19.29 117.19-19.29L117.19-19.29Q115.77-19.29 114.48-18.75 113.18-18.21 112.2-17.23L112.2-17.23Q110.14-15.18 110.14-12.24L110.14-12.24Q110.14-9.35 112.2-7.29L112.2-7.29Q113.18-6.27 114.48-5.75 115.77-5.24 117.19-5.24L117.19-5.24Q118.66-5.24 119.84-5.73L119.84-5.73 121.94-0.49Q119.69 0.64 116.7 0.64L116.7 0.64Q114.01 0.64 111.74-0.37 109.46-1.37 107.79-3.13 106.13-4.9 105.2-7.25 104.27-9.59 104.27-12.24L104.27-12.24Q104.27-14.93 105.2-17.28 106.13-19.63 107.79-21.39 109.46-23.15 111.74-24.16 114.01-25.16 116.7-25.16L116.7-25.16Q119.1-25.16 120.96-24.43 122.82-23.69 124.24-22.57L124.24-22.57 124.24-24.53ZM154.25-34.27L154.25-34.27 169.72 0 163.26 0 160.61-5.87 160.61-5.87 157.97-11.75 157.97-11.75 151.02-27.12 144.07-11.75 152.98-11.75 155.62-5.87 141.43-5.87 138.78 0 132.32 0 147.79-34.27 154.25-34.27ZM178.04-34.22L178.04-34.22 178.04 0 172.17 0 172.17-34.22 178.04-34.22Z" transform="translate(-2, -10)"/>
</svg>
