<?xml version="1.0" encoding="UTF-8" standalone="no"?>
<!DOCTYPE svg PUBLIC "-//W3C//DTD SVG 1.1//EN" "http://www.w3.org/Graphics/SVG/1.1/DTD/svg11.dtd">
<svg xmlns="http://www.w3.org/2000/svg" version="1.1" viewBox="0.00 0.00 512.00 512.00">
<path fill="#000000" d="
  M 0.00 128.93
  L 0.00 20.94
  C 1.72 11.05 8.19 9.52 17.59 9.51
  Q 45.05 9.49 72.50 9.53
  C 76.51 9.53 79.44 10.47 82.46 13.43
  Q 91.97 22.72 101.29 32.22
  C 105.81 36.83 104.00 59.47 104.00 66.37
  A 0.42 0.42 0.0 0 0 104.42 66.79
  Q 116.36 66.70 127.99 66.78
  Q 131.64 66.80 133.24 67.58
  C 138.48 70.13 138.84 77.58 133.93 80.48
  Q 131.82 81.73 127.20 81.74
  Q 115.96 81.77 104.61 81.74
  Q 104.00 81.74 104.00 82.35
  Q 103.99 102.10 104.00 122.07
  C 104.01 134.34 101.59 140.50 88.56 140.50
  Q 53.52 140.49 18.49 140.51
  C 8.58 140.52 1.79 139.54 0.00 128.93
  Z
  M 89.00 41.17
  A 0.63 0.63 0.0 0 0 88.82 40.73
  L 72.82 24.69
  A 0.63 0.63 0.0 0 0 72.38 24.50
  L 15.63 24.50
  A 0.63 0.63 0.0 0 0 15.00 25.13
  L 15.00 124.87
  A 0.63 0.63 0.0 0 0 15.63 125.50
  L 88.37 125.51
  A 0.63 0.63 0.0 0 0 89.00 124.88
  L 89.00 41.17
  Z"
/>
<path fill="#000000" d="
  M 512.00 39.07
  L 512.00 129.04
  C 510.31 138.75 504.21 140.50 494.94 140.50
  Q 459.43 140.50 423.93 140.49
  C 410.38 140.49 407.31 133.83 408.03 121.11
  Q 408.25 117.24 409.70 115.29
  C 413.04 110.81 420.55 112.16 422.47 117.34
  C 423.29 119.57 422.90 122.36 423.04 124.91
  Q 423.07 125.50 423.65 125.50
  L 496.50 125.50
  A 0.50 0.50 0.0 0 0 497.00 125.00
  L 497.00 41.50
  A 1.50 1.50 0.0 0 0 496.56 40.44
  L 480.97 24.84
  A 1.19 1.16 -22.0 0 0 480.14 24.50
  L 423.74 24.50
  A 0.74 0.74 0.0 0 0 423.00 25.24
  Q 423.00 54.22 423.00 82.93
  C 422.99 96.47 406.91 94.89 408.05 82.58
  A 0.77 0.76 -87.6 0 0 407.29 81.75
  Q 358.72 81.76 309.96 81.74
  C 303.52 81.74 299.09 83.08 299.07 90.26
  Q 298.97 119.47 299.00 148.51
  A 0.74 0.74 0.0 0 0 299.75 149.25
  Q 321.65 149.24 343.75 149.26
  C 354.58 149.27 363.08 150.04 367.11 160.40
  Q 368.51 163.99 368.51 171.29
  Q 368.49 256.28 368.51 341.28
  C 368.51 350.29 366.37 357.68 357.88 361.13
  Q 353.93 362.74 342.42 362.75
  Q 321.04 362.76 299.55 362.73
  A 0.54 0.54 0.0 0 0 299.01 363.27
  Q 298.97 392.75 299.03 422.43
  C 299.04 428.71 303.88 430.25 309.50 430.25
  Q 358.59 430.25 407.47 430.25
  A 0.54 0.53 0.0 0 0 408.01 429.72
  Q 407.98 408.58 408.01 387.42
  C 408.03 375.24 412.85 371.50 424.98 371.50
  Q 452.88 371.49 480.79 371.51
  C 483.42 371.52 487.27 372.27 488.97 373.77
  Q 493.30 377.57 508.04 392.71
  Q 511.42 396.18 512.00 401.07
  L 512.00 490.81
  Q 510.01 502.50 498.50 502.50
  Q 461.39 502.50 424.28 502.50
  C 411.09 502.50 407.98 497.10 407.99 484.20
  Q 408.02 464.91 407.99 445.78
  A 0.52 0.52 0.0 0 0 407.47 445.26
  Q 358.79 445.23 310.06 445.27
  C 298.86 445.28 289.27 441.42 285.50 430.22
  Q 283.95 425.61 283.99 412.59
  Q 284.05 387.88 283.98 363.12
  Q 283.97 362.54 283.40 362.58
  Q 274.64 363.08 272.25 362.50
  C 265.75 360.92 263.61 352.40 269.25 348.96
  Q 271.23 347.75 275.50 347.75
  Q 313.20 347.76 350.77 347.75
  A 2.74 2.73 90.0 0 0 353.50 345.01
  L 353.50 209.25
  A 0.50 0.50 0.0 0 0 353.00 208.75
  L 159.50 208.75
  A 1.00 1.00 0.0 0 0 158.50 209.75
  L 158.50 344.99
  A 2.76 2.76 0.0 0 0 161.26 347.75
  Q 198.94 347.75 236.86 347.76
  Q 240.83 347.76 242.76 348.99
  C 246.77 351.55 246.97 358.38 243.08 361.06
  C 239.71 363.39 233.03 362.94 228.85 362.60
  A 0.79 0.79 0.0 0 0 228.00 363.39
  Q 227.99 391.41 228.06 419.74
  C 228.11 437.47 217.53 445.32 201.23 445.29
  Q 152.78 445.20 104.52 445.27
  A 0.52 0.52 0.0 0 0 104.00 445.79
  Q 104.00 465.66 104.00 485.57
  C 104.00 499.75 98.85 502.50 84.99 502.50
  Q 51.31 502.51 17.63 502.49
  C 8.12 502.49 1.73 500.92 0.00 490.93
  L 0.00 382.95
  C 1.51 373.85 7.35 371.51 16.04 371.51
  Q 45.15 371.49 74.25 371.51
  C 81.45 371.51 94.40 386.94 99.59 392.16
  Q 104.14 396.72 104.05 403.25
  Q 103.87 416.46 104.05 429.67
  Q 104.06 430.23 104.62 430.23
  Q 153.78 430.29 202.86 430.24
  C 210.45 430.23 212.97 427.53 212.98 420.25
  Q 213.03 391.66 212.99 363.13
  A 0.42 0.42 0.0 0 0 212.57 362.71
  Q 187.73 362.78 164.04 362.73
  C 148.62 362.70 143.46 354.34 143.47 340.63
  Q 143.53 255.70 143.49 170.77
  Q 143.48 163.93 144.85 160.43
  C 148.85 150.18 157.19 149.27 167.94 149.26
  Q 189.74 149.24 212.43 149.28
  A 0.57 0.57 0.0 0 0 213.00 148.71
  Q 213.01 119.60 212.99 90.26
  C 212.99 82.57 207.74 81.72 201.11 81.73
  Q 184.34 81.78 167.58 81.73
  Q 163.16 81.72 161.27 80.62
  C 156.26 77.70 156.39 70.46 161.42 67.73
  Q 163.20 66.76 166.86 66.76
  Q 184.14 66.76 201.40 66.73
  C 212.92 66.70 222.58 70.27 226.49 81.82
  Q 228.00 86.29 228.00 96.99
  Q 227.99 122.87 228.00 148.28
  Q 228.00 149.25 228.97 149.25
  L 283.54 149.26
  Q 283.98 149.26 283.98 148.82
  Q 284.04 124.10 283.99 99.46
  Q 283.96 86.35 285.52 81.73
  C 289.30 70.55 298.89 66.72 310.09 66.73
  Q 358.80 66.77 407.47 66.74
  A 0.53 0.53 0.0 0 0 408.00 66.22
  Q 408.01 47.08 408.00 27.78
  Q 407.99 19.49 409.46 16.43
  C 412.31 10.48 417.66 9.52 424.28 9.51
  Q 452.40 9.49 480.50 9.52
  C 484.51 9.53 487.42 10.47 490.45 13.41
  C 499.36 22.05 510.98 31.43 512.00 39.07
  Z
  M 185.97 164.25
  L 161.03 164.25
  A 2.53 2.53 0.0 0 0 158.50 166.78
  L 158.50 193.25
  A 0.50 0.49 0.0 0 0 159.00 193.74
  L 185.99 193.77
  A 0.51 0.51 0.0 0 0 186.50 193.26
  L 186.50 164.78
  A 0.53 0.53 0.0 0 0 185.97 164.25
  Z
  M 351.91 164.64
  Q 351.17 164.43 350.25 164.43
  Q 276.14 164.23 202.03 164.23
  Q 201.50 164.23 201.50 164.76
  L 201.50 193.12
  Q 201.50 193.75 202.12 193.75
  L 353.00 193.75
  A 0.50 0.50 0.0 0 0 353.50 193.25
  L 353.50 166.76
  A 2.21 2.20 -82.0 0 0 351.91 164.64
  Z
  M 72.80 386.68
  A 0.59 0.59 0.0 0 0 72.39 386.51
  L 15.59 386.49
  A 0.59 0.59 0.0 0 0 15.00 387.08
  L 15.00 486.91
  A 0.59 0.59 0.0 0 0 15.59 487.50
  L 88.41 487.50
  A 0.59 0.59 0.0 0 0 89.00 486.91
  L 89.00 403.12
  A 0.59 0.59 0.0 0 0 88.83 402.71
  L 72.80 386.68
  Z
  M 480.80 386.68
  A 0.59 0.59 0.0 0 0 480.39 386.51
  L 423.59 386.49
  A 0.59 0.59 0.0 0 0 423.00 387.08
  L 423.00 486.91
  A 0.59 0.59 0.0 0 0 423.59 487.50
  L 496.41 487.50
  A 0.59 0.59 0.0 0 0 497.00 486.91
  L 497.00 403.11
  A 0.59 0.59 0.0 0 0 496.83 402.70
  L 480.80 386.68
  Z"
/>
<rect fill="#000000" x="28.59" y="43.78" width="46.80" height="14.90" rx="7.21"/>
<rect fill="#000000" x="436.59" y="43.78" width="46.82" height="14.90" rx="7.21"/>
<rect fill="#000000" x="28.59" y="69.77" width="46.80" height="14.90" rx="7.21"/>
<rect fill="#000000" x="436.59" y="69.78" width="46.82" height="14.90" rx="7.21"/>
<rect fill="#000000" x="28.62" y="95.79" width="30.02" height="14.84" rx="7.06"/>
<rect fill="#000000" x="436.63" y="95.79" width="30.02" height="14.84" rx="7.06"/>
<path fill="#000000" d="
  M 0.00 225.18
  L 0.00 183.71
  C 1.53 174.64 7.32 172.27 15.99 172.26
  Q 31.56 172.25 47.11 172.24
  C 58.41 172.24 64.47 175.03 64.49 186.94
  Q 64.51 203.83 64.50 220.73
  C 64.50 232.11 60.33 236.78 48.95 236.76
  Q 32.98 236.74 17.01 236.76
  C 7.77 236.77 1.54 234.95 0.00 225.18
  Z
  M 49.50 187.70
  A 0.44 0.44 0.0 0 0 49.06 187.26
  L 15.44 187.26
  A 0.44 0.44 0.0 0 0 15.00 187.70
  L 15.00 221.32
  A 0.44 0.44 0.0 0 0 15.44 221.76
  L 49.06 221.76
  A 0.44 0.44 0.0 0 0 49.50 221.32
  L 49.50 187.70
  Z"
/>
<path fill="#000000" d="
  M 512.00 184.07
  L 512.00 225.29
  C 510.43 234.67 504.50 236.78 495.56 236.76
  Q 480.05 236.73 464.57 236.76
  C 452.94 236.78 447.47 233.51 447.49 221.54
  Q 447.52 204.85 447.49 188.15
  C 447.48 177.05 451.68 172.27 462.82 172.26
  Q 478.29 172.25 493.76 172.24
  C 503.66 172.22 510.40 173.46 512.00 184.07
  Z
  M 496.99 187.69
  A 0.44 0.44 0.0 0 0 496.55 187.25
  L 462.93 187.25
  A 0.44 0.44 0.0 0 0 462.49 187.69
  L 462.49 221.31
  A 0.44 0.44 0.0 0 0 462.93 221.75
  L 496.55 221.75
  A 0.44 0.44 0.0 0 0 496.99 221.31
  L 496.99 187.69
  Z"
/>
<path fill="#000000" d="
  M 230.73 284.61
  Q 230.80 271.55 230.74 258.51
  C 230.69 247.97 245.75 247.02 245.75 259.27
  Q 245.75 271.86 245.75 284.27
  A 1.01 1.01 0.0 0 0 246.76 285.28
  L 266.66 285.20
  Q 267.75 285.19 267.75 284.11
  Q 267.75 258.75 267.75 232.89
  Q 267.76 228.74 268.96 226.89
  C 272.22 221.88 279.74 222.73 281.98 228.08
  Q 282.72 229.85 282.73 234.15
  Q 282.77 258.74 282.72 284.49
  A 0.78 0.78 0.0 0 0 283.50 285.27
  L 303.20 285.20
  Q 304.50 285.20 304.50 283.91
  C 304.50 279.21 303.36 267.26 305.42 263.27
  C 308.22 257.84 315.79 258.05 318.51 263.28
  C 320.70 267.49 319.48 279.53 319.52 284.66
  Q 319.53 285.22 320.08 285.22
  C 324.19 285.29 332.46 284.28 335.67 286.47
  C 342.61 291.20 338.14 300.20 330.18 300.22
  Q 294.43 300.32 184.01 300.22
  C 171.46 300.21 171.64 285.09 182.65 285.28
  Q 188.03 285.38 193.42 285.18
  A 0.60 0.60 0.0 0 0 194.00 284.58
  Q 193.99 267.56 194.02 250.67
  Q 194.03 247.02 195.03 245.20
  C 198.14 239.56 206.51 240.48 208.56 246.56
  Q 209.02 247.95 209.01 250.99
  Q 208.93 267.87 209.03 284.74
  Q 209.04 285.28 209.57 285.28
  L 230.15 285.19
  Q 230.72 285.19 230.73 284.61
  Z"
/>
<path fill="#000000" d="
  M 0.00 328.18
  L 0.00 286.71
  C 1.56 277.33 7.51 275.22 16.45 275.24
  Q 32.21 275.27 47.95 275.25
  C 59.32 275.23 64.52 278.86 64.50 290.46
  Q 64.49 306.87 64.51 323.30
  C 64.53 334.70 60.75 339.71 49.20 339.73
  Q 33.54 339.76 17.86 339.76
  C 8.23 339.76 1.70 338.39 0.00 328.18
  Z
  M 49.50 290.77
  A 0.52 0.52 0.0 0 0 48.98 290.25
  L 15.52 290.25
  A 0.52 0.52 0.0 0 0 15.00 290.77
  L 15.00 324.23
  A 0.52 0.52 0.0 0 0 15.52 324.75
  L 48.98 324.75
  A 0.52 0.52 0.0 0 0 49.50 324.23
  L 49.50 290.77
  Z"
/>
<path fill="#000000" d="
  M 512.00 287.07
  L 512.00 328.30
  C 510.48 337.36 504.63 339.72 495.97 339.74
  Q 480.66 339.76 465.37 339.76
  C 453.11 339.76 447.46 336.91 447.49 324.17
  Q 447.53 307.67 447.49 291.17
  C 447.46 279.81 451.76 275.22 463.09 275.24
  Q 479.31 275.27 495.54 275.24
  C 504.59 275.23 510.69 277.42 512.00 287.07
  Z
  M 496.99 290.69
  A 0.44 0.44 0.0 0 0 496.55 290.25
  L 462.93 290.25
  A 0.44 0.44 0.0 0 0 462.49 290.69
  L 462.49 324.31
  A 0.44 0.44 0.0 0 0 462.93 324.75
  L 496.55 324.75
  A 0.44 0.44 0.0 0 0 496.99 324.31
  L 496.99 290.69
  Z"
/>
<rect fill="#000000" x="174.54" y="313.25" width="108.88" height="14.96" rx="7.36"/>
<rect fill="#000000" x="-22.15" y="-7.45" transform="translate(316.75,320.71) rotate(-0.1)" width="44.30" height="14.90" rx="7.19"/>
<rect fill="#000000" x="-23.40" y="-7.46" transform="translate(51.99,413.03) rotate(-0.1)" width="46.80" height="14.92" rx="7.21"/>
<rect fill="#000000" x="-23.40" y="-7.46" transform="translate(460.00,413.03) rotate(-0.1)" width="46.80" height="14.92" rx="7.21"/>
<rect fill="#000000" x="28.59" y="431.57" width="46.80" height="14.90" rx="7.21"/>
<rect fill="#000000" x="436.60" y="431.57" width="46.80" height="14.90" rx="7.21"/>
<rect fill="#000000" x="-15.02" y="-7.42" transform="translate(43.63,465.03) rotate(0.1)" width="30.04" height="14.84" rx="7.05"/>
<rect fill="#000000" x="436.63" y="457.62" width="30.02" height="14.82" rx="7.05"/>
</svg>
